<?xml version="1.0" standalone="no"?>
<!DOCTYPE svg PUBLIC "-//W3C//DTD SVG 20010904//EN"
 "http://www.w3.org/TR/2001/REC-SVG-20010904/DTD/svg10.dtd">
<svg version="1.0" xmlns="http://www.w3.org/2000/svg"
 width="280.000000pt" height="280.000000pt" viewBox="0 0 280.000000 280.000000"
 preserveAspectRatio="xMidYMid meet">
<metadata>
Created by potrace 1.14, written by Peter Selinger 2001-2017
</metadata>
<g transform="translate(0.000000,280.000000) scale(0.100000,-0.100000)"
fill="#000000" stroke="none">
<path d="M1522 2099 c-15 -6 -17 -24 -16 -155 1 -82 2 -152 3 -155 0 -3 18 -5
39 -5 l37 1 0 -385 c0 -428 7 -385 -60 -389 -19 -1 -20 -8 -20 -153 l0 -153
278 -3 277 -2 0 155 c0 170 5 157 -60 157 l-26 1 0 128 0 129 96 0 c92 0 97
-1 121 -27 l24 -28 -1 -257 -1 -258 233 0 c129 0 234 3 235 8 1 11 1 264 0
287 -1 18 -7 20 -41 18 l-40 -2 -1 42 c0 23 0 95 0 160 l0 118 -46 50 -46 49
46 43 45 42 0 181 0 181 -111 111 -112 111 -418 3 c-230 2 -426 0 -435 -3z
m670 -337 c30 -30 29 -124 -2 -157 -21 -22 -30 -24 -116 -23 -57 1 -95 6 -97
12 -3 10 -2 172 2 187 0 3 44 5 96 4 83 -1 99 -4 117 -23z"/>
<path d="M364 1933 l1 -158 28 0 c15 1 27 -3 27 -8 0 -4 -57 -179 -126 -388
l-127 -380 -41 3 -41 3 0 -159 0 -159 268 -1 267 -1 0 158 0 157 -25 0 c-23 0
-24 1 -10 33 l13 32 131 2 132 1 13 -31 c12 -30 11 -32 -11 -35 -23 -3 -23 -4
-23 -157 0 -113 3 -154 13 -157 9 -3 444 -2 509 1 14 1 16 18 16 156 -1 105
-4 155 -12 156 -6 1 -24 0 -41 0 l-30 -2 -127 383 c-71 211 -128 386 -128 389
0 3 16 3 35 1 l35 -4 0 161 0 161 -374 0 -374 0 2 -157z m396 -548 l17 -50
-41 1 c-38 1 -41 2 -38 27 4 40 34 105 40 87 3 -8 13 -37 22 -65z"/>
</g>
</svg>
